Coordinates
version=1
nRows=20
nColumns=23
inDegrees=yes

Units are S.I. units (second, meters, Newtons, ...)
If the header above contains a line with 'inDegrees', this indicates whether rotational values are in degrees (yes) or radians (no).

endheader
time	pelvis_tilt	pelvis_list	pelvis_rotation	pelvis_tx	pelvis_ty	pelvis_tz	hip_flexion_r	hip_adduction_r	hip_rotation_r	knee_angle_r	knee_angle_r_beta	ankle_angle_r	subtalar_angle_r	mtp_angle_r	hip_flexion_l	hip_adduction_l	hip_rotation_l	knee_angle_l	knee_angle_l_beta	ankle_angle_l	subtalar_angle_l	mtp_angle_l
     22.50000000	     -6.54334456	      0.10301564	     -6.41793525	      2.39570453	      1.06799822	      1.00431031	     27.64906063	      5.96467542	      3.70868210	     19.41977674	      0.33893904	      7.80779681	      0.21633061	      0.00000000	    -13.64801897	      1.88073461	    -12.31596923	     21.26356415	      0.37111921	    -12.51462196	     -4.56267907	      0.00000000
     22.50666667	     -6.82255627	      0.20970769	     -6.53460081	      2.39708311	      1.06777718	      1.00513190	     27.09112889	      6.08998433	      4.90579940	     16.05136845	      0.28014923	      8.44719837	      1.24051929	      0.00000000	    -13.30898576	      1.80388596	    -12.66586952	     23.18153078	      0.40459404	    -12.63261952	     -5.20017094	      0.00000000
     22.51333333	     -6.23431579	     -0.31197212	     -6.31983937	      2.39906845	      1.06852235	      1.00527398	     24.98213781	      6.62139434	      6.86856845	     11.91104842	      0.20788701	      8.02266160	     -0.06139199	      0.00000000	    -13.91440900	      0.97925690	    -13.25057459	     25.31640240	      0.44185458	    -12.20797319	     -4.67595281	      0.00000000
     22.52000000	     -5.95683768	     -0.50434977	     -6.28082537	      2.40050126	      1.06805758	      1.00569407	     23.73556885	      6.76952620	      8.07499444	      8.98204556	      0.15676627	      8.10834317	     -0.09795851	      0.00000000	    -14.03470976	      0.52593065	    -13.59003487	     27.67396785	      0.48300186	    -11.73314211	     -4.77562238	      0.00000000
     22.52666667	     -5.60607881	     -0.72481029	     -6.28449513	      2.40172776	      1.06718689	      1.00622858	     22.62539254	      6.90713920	      8.86879781	      6.76273841	      0.11803205	      8.23290848	     -0.02265703	      0.00000000	    -14.14881430	      0.04069263	    -13.85926932	     30.21331797	      0.52732188	    -11.17545239	     -4.96738748	      0.00000000
     22.53333333	     -5.24574790	     -0.97944519	     -6.29367068	      2.40264440	      1.06589466	      1.00684458	     21.76779348	      7.07386634	      9.11722283	      5.34771378	      0.09333521	      8.39364744	      0.23810255	      0.00000000	    -14.14387132	     -0.48213203	    -13.95029846	     32.98118229	      0.57563022	    -10.56470313	     -5.34612812	      0.00000000
     22.54000000	     -4.70848134	     -1.36453894	     -6.39082756	      2.40333587	      1.06440698	      1.00761071	     20.88073467	      7.40324988	      9.13715706	      4.57071685	      0.07977406	      8.44575170	      0.36994465	      0.00000000	    -14.25943084	     -1.11102715	    -14.04646699	     35.90303669	      0.62662620	     -9.93519531	     -5.72472073	      0.00000000
     22.54666667	     -4.10417408	     -1.84540885	     -6.51423091	      2.40374669	      1.06265052	      1.00842853	     20.08432224	      7.85451481	      8.87627410	      4.41979039	      0.07713989	      8.33563677	      0.35178869	      0.00000000	    -14.34244239	     -1.81476744	    -14.03158021	     38.99229273	      0.68054389	     -9.37679604	     -6.26432279	      0.00000000
     22.55333333	     -3.40017195	     -2.37119841	     -6.74565685	      2.40383812	      1.06066445	      1.00933064	     19.33946806	      8.39945687	      8.56784418	      4.86595288	      0.08492690	      8.02071631	      0.05837413	      0.00000000	    -14.45173886	     -2.46491741	    -13.90190105	     42.16685310	      0.73595042	     -9.00216651	     -7.18349050	      0.00000000
     22.56000000	     -2.63000648	     -3.03720330	     -6.90512521	      2.40375964	      1.05838460	      1.01009511	     18.62255016	      9.05575247	      7.96787957	      5.77673449	      0.10082304	      7.39255446	     -0.43589991	      0.00000000	    -14.52339375	     -3.27973774	    -13.70250150	     45.52311671	      0.79452827	     -8.64843400	     -7.94036680	      0.00000000
     22.56666667	     -2.00654966	     -3.69989546	     -7.15363426	      2.40328545	      1.05542665	      1.01098285	     18.33206576	      9.74767216	      7.04153132	      7.42317367	      0.12955882	      6.66461457	     -0.78563667	      0.00000000	    -14.30991588	     -4.13877764	    -13.61393740	     49.09715671	      0.85690704	     -8.19531907	     -8.35325468	      0.00000000
     22.57333333	     -1.37570727	     -4.31610987	     -7.50439837	      2.40247678	      1.05207185	      1.01186133	     18.22182108	     10.39732102	      6.10590023	      9.62126227	      0.16792270	      5.81523135	     -1.30741829	      0.00000000	    -14.03423778	     -4.83927473	    -13.42467559	     52.67882913	      0.91941901	     -7.99181505	     -9.15191042	      0.00000000
     22.58000000	     -0.77622040	     -4.87327536	     -7.90517984	      2.40134584	      1.04821193	      1.01269599	     18.31949485	     10.96099010	      5.07424075	     12.29773300	      0.21463593	      4.96675921	     -1.82480049	      0.00000000	    -13.63634201	     -5.46309802	    -13.24258262	     56.31600614	      0.98289973	     -7.87325673	     -9.98943628	      0.00000000
     22.58666667	      0.31039602	     -5.65143146	     -8.18964321	      2.40035459	      1.04476487	      1.01317136	     17.68949157	     11.63171521	      4.29778973	     14.75721550	      0.25756200	      3.77503856	     -2.83901695	      0.00000000	    -13.81066021	     -6.25716378	    -13.08859156	     59.79914816	      1.04369203	     -7.85918097	    -10.89367178	      0.00000000
     22.59333333	      0.24793209	     -5.80215215	     -8.76488506	      2.39842624	      1.03911040	      1.01398639	     19.01376234	     11.77509794	      3.07442544	     18.55947765	      0.32392399	      3.70143586	     -2.81756372	      0.00000000	    -12.43123523	     -6.50620562	    -12.87184669	     63.61477262	      1.11028724	     -7.69043958	    -11.49695573	      0.00000000
     22.60000000	      1.33229940	     -6.59746964	     -9.03242779	      2.39708390	      1.03516272	      1.01415985	     18.42393059	     12.40034804	      2.50691516	     21.26742823	      0.37118665	      3.02699114	     -3.81532524	      0.00000000	    -12.51478170	     -7.33772759	    -12.76839086	     67.02280756	      1.16976867	     -7.66160710	    -12.26642670	      0.00000000
     22.60666667	      0.97835658	     -6.55464003	     -9.68354272	      2.39473701	      1.02871277	      1.01485572	     20.03336172	     12.44242717	      2.04117828	     25.12369818	      0.43849125	      3.57237630	     -4.26666315	      0.00000000	    -10.68288012	     -7.47983617	    -12.63282404	     70.76465411	      1.23507621	     -7.28443519	    -12.58119624	      0.00000000
     22.61333333	      1.22277058	     -6.83328901	    -10.12377849	      2.39268131	      1.02326674	      1.01510876	     20.66753682	     12.66685616	      1.64221033	     28.45928122	      0.49670816	      4.27766410	     -4.56380690	      0.00000000	     -9.59436720	     -7.91284565	    -12.49302301	     74.18946415	      1.29485042	     -7.05214144	    -13.11274324	      0.00000000
     22.62000000	      1.40969196	     -7.08609389	    -10.49647076	      2.39054806	      1.01789050	      1.01519786	     21.25771377	     12.86296401	      1.36670430	     31.62855179	      0.55202237	      5.39746321	     -4.72078006	      0.00000000	     -8.38262900	     -8.33752865	    -12.26389408	     77.48605669	      1.35238681	     -6.78272741	    -13.61606599	      0.00000000
     22.62666667	      1.51661540	     -7.34030625	    -10.83318689	      2.38837104	      1.01262818	      1.01521884	     21.78584229	     13.09870629	      1.26862868	     34.55929755	      0.60317353	      6.78679820	     -4.85413056	      0.00000000	     -7.04288974	     -8.83775526	    -12.03633496	     80.64570837	      1.40753314	     -6.40027193	    -13.95417624	      0.00000000
